{
  "accessors": [
    {
      "bufferView": 2,
      "componentType": 5126,
      "count": 580,
      "max": [
        5.4860410690307617,
        7.3736310005187988,
        8.6317539215087891
      ],
      "min": [
        -5.4860410690307617,
        -6.1642184257507324,
        -8.6317539215087891
      ],
      "type": "VEC3"
    },
    {
      "bufferView": 2,
      "byteOffset": 6960,
      "componentType": 5126,
      "count": 580,
      "max": [
        1,
        1,
        1
      ],
      "min": [
        -1,
        -1,
        -0.99998933076858521
      ],
      "type": "VEC3"
    },
    {
      "bufferView": 3,
      "componentType": 5126,
      "count": 580,
      "max": [
        1,
        1,
        1,
        1
      ],
      "min": [
        -0.015450490638613701,
        -1,
        -1,
        1
      ],
      "type": "VEC4"
    },
    {
      "bufferView": 1,
      "componentType": 5126,
      "count": 580,
      "max": [
        0.998008131980896,
        0.97290825843811035
      ],
      "min": [
        0.0019920321647077799,
        0.0019419328309595585
      ],
      "type": "VEC2"
    },
    {
      "bufferView": 0,
      "componentType": 5125,
      "count": 1494,
      "max": [
        579
      ],
      "min": [
        0
      ],
      "type": "SCALAR"
    },
    {
      "bufferView": 2,
      "byteOffset": 13920,
      "componentType": 5126,
      "count": 2360,
      "max": [
        6.4096670150756836,
        16.723182678222656,
        5.6555671691894531
      ],
      "min": [
        -4.5431833267211914,
        12.002426147460938,
        -11.58640193939209
      ],
      "type": "VEC3"
    },
    {
      "bufferView": 2,
      "byteOffset": 42240,
      "componentType": 5126,
      "count": 2360,
      "max": [
        1,
        1,
        1
      ],
      "min": [
        -1,
        -1,
        -1
      ],
      "type": "VEC3"
    },
    {
      "bufferView": 3,
      "byteOffset": 9280,
      "componentType": 5126,
      "count": 2360,
      "max": [
        1,
        1,
        0.9995461106300354,
        1
      ],
      "min": [
        -0.9995461106300354,
        -1,
        -1,
        1
      ],
      "type": "VEC4"
    },
    {
      "bufferView": 1,
      "byteOffset": 4640,
      "componentType": 5126,
      "count": 2360,
      "max": [
        0.99821513891220093,
        0.998008131980896
      ],
      "min": [
        0.0017292499542236328,
        0.0019919872283935547
      ],
      "type": "VEC2"
    },
    {
      "bufferView": 0,
      "byteOffset": 5976,
      "componentType": 5125,
      "count": 8430,
      "max": [
        2359
      ],
      "min": [
        0
      ],
      "type": "SCALAR"
    },
    {
      "bufferView": 2,
      "byteOffset": 70560,
      "componentType": 5126,
      "count": 3172,
      "max": [
        6.0439248085021973,
        15.928516387939453,
        5.3797793388366699
      ],
      "min": [
        -3.3496227264404297,
        -1.2020630836486816,
        -9.388188362121582
      ],
      "type": "VEC3"
    },
    {
      "bufferView": 2,
      "byteOffset": 108624,
      "componentType": 5126,
      "count": 3172,
      "max": [
        1,
        1,
        1
      ],
      "min": [
        -1,
        -1,
        -1
      ],
      "type": "VEC3"
    },
    {
      "bufferView": 3,
      "byteOffset": 47040,
      "componentType": 5126,
      "count": 3172,
      "max": [
        1,
        1,
        1,
        1
      ],
      "min": [
        -1,
        -1,
        -1,
        1
      ],
      "type": "VEC4"
    },
    {
      "bufferView": 1,
      "byteOffset": 23520,
      "componentType": 5126,
      "count": 3172,
      "max": [
        0.98817867040634155,
        0.99754762649536133
      ],
      "min": [
        0.0052756667137145996,
        0.0087849339470267296
      ],
      "type": "VEC2"
    },
    {
      "bufferView": 0,
      "byteOffset": 39696,
      "componentType": 5125,
      "count": 8658,
      "max": [
        3171
      ],
      "min": [
        0
      ],
      "type": "SCALAR"
    }
  ],
  "asset": {
    "generator": "Sketchfab (OSG glTF plugin)",
    "version": "2.0"
  },
  "bufferViews": [
    {
      "buffer": 0,
      "byteLength": 74328,
      "byteOffset": 0,
      "name": "floatBufferViews",
      "target": 34963
    },
    {
      "buffer": 0,
      "byteLength": 48896,
      "byteOffset": 74328,
      "byteStride": 8,
      "name": "floatBufferViews",
      "target": 34962
    },
    {
      "buffer": 0,
      "byteLength": 146688,
      "byteOffset": 123224,
      "byteStride": 12,
      "name": "floatBufferViews",
      "target": 34962
    },
    {
      "buffer": 0,
      "byteLength": 97792,
      "byteOffset": 269912,
      "byteStride": 16,
      "name": "floatBufferViews",
      "target": 34962
    }
  ],
  "buffers": [
    {
      "byteLength": 367704,
      "uri": "scene.bin"
    }
  ],
  "images": [
    {
      "uri": "textures/buildingtx_baseColor.jpeg"
    },
    {
      "uri": "textures/buildingtx_normal.png"
    },
    {
      "uri": "textures/buildingtx_metallicRoughness.png"
    },
    {
      "uri": "textures/propstx_baseColor.jpeg"
    },
    {
      "uri": "textures/propstx_normal.png"
    },
    {
      "uri": "textures/propstx_metallicRoughness.png"
    },
    {
      "uri": "textures/detailingtx_baseColor.jpeg"
    },
    {
      "uri": "textures/detailingtx_normal.png"
    },
    {
      "uri": "textures/detailingtx_metallicRoughness.png"
    }
  ],
  "materials": [
    {
      "doubleSided": true,
      "name": "buildingtx",
      "normalTexture": {
        "index": 1,
        "scale": 1,
        "texCoord": 0
      },
      "occlusionTexture": {
        "index": 2,
        "strength": 1,
        "texCoord": 0
      },
      "pbrMetallicRoughness": {
        "baseColorFactor": [
          1,
          1,
          1,
          1
        ],
        "baseColorTexture": {
          "index": 0,
          "texCoord": 0
        },
        "metallicFactor": 1,
        "metallicRoughnessTexture": {
          "index": 2,
          "texCoord": 0
        },
        "roughnessFactor": 1
      }
    },
    {
      "doubleSided": true,
      "name": "detailingtx",
      "normalTexture": {
        "index": 7,
        "scale": 1,
        "texCoord": 0
      },
      "occlusionTexture": {
        "index": 8,
        "strength": 1,
        "texCoord": 0
      },
      "pbrMetallicRoughness": {
        "baseColorFactor": [
          1,
          1,
          1,
          1
        ],
        "baseColorTexture": {
          "index": 6,
          "texCoord": 0
        },
        "metallicFactor": 1,
        "metallicRoughnessTexture": {
          "index": 8,
          "texCoord": 0
        },
        "roughnessFactor": 1
      }
    },
    {
      "doubleSided": true,
      "name": "propstx",
      "normalTexture": {
        "index": 4,
        "scale": 1,
        "texCoord": 0
      },
      "occlusionTexture": {
        "index": 5,
        "strength": 1,
        "texCoord": 0
      },
      "pbrMetallicRoughness": {
        "baseColorFactor": [
          1,
          1,
          1,
          1
        ],
        "baseColorTexture": {
          "index": 3,
          "texCoord": 0
        },
        "metallicFactor": 1,
        "metallicRoughnessTexture": {
          "index": 5,
          "texCoord": 0
        },
        "roughnessFactor": 1
      }
    }
  ],
  "meshes": [
    {
      "name": "building_buildingtx_0",
      "primitives": [
        {
          "attributes": {
            "NORMAL": 1,
            "POSITION": 0,
            "TANGENT": 2,
            "TEXCOORD_0": 3
          },
          "indices": 4,
          "material": 0,
          "mode": 4
        }
      ]
    },
    {
      "name": "detailing_detailingtx_0",
      "primitives": [
        {
          "attributes": {
            "NORMAL": 6,
            "POSITION": 5,
            "TANGENT": 7,
            "TEXCOORD_0": 8
          },
          "indices": 9,
          "material": 1,
          "mode": 4
        }
      ]
    },
    {
      "name": "props_propstx_0",
      "primitives": [
        {
          "attributes": {
            "NORMAL": 11,
            "POSITION": 10,
            "TANGENT": 12,
            "TEXCOORD_0": 13
          },
          "indices": 14,
          "material": 2,
          "mode": 4
        }
      ]
    }
  ],
  "nodes": [
    {
      "children": [
        1
      ],
      "name": "RootNode (gltf orientation matrix)",
      "rotation": [
        -0.70710678118654746,
        -0,
        -0,
        0.70710678118654757
      ]
    },
    {
      "children": [
        2
      ],
      "name": "RootNode (model correction matrix)"
    },
    {
      "children": [
        3
      ],
      "matrix": [
        1,
        0,
        0,
        0,
        0,
        0,
        1,
        0,
        0,
        -1,
        0,
        0,
        0,
        0,
        0,
        1
      ],
      "name": "Highpollybuiling.fbx"
    },
    {
      "children": [
        4,
        7,
        10
      ],
      "name": "RootNode"
    },
    {
      "children": [
        5
      ],
      "matrix": [
        1,
        0,
        0,
        0,
        0,
        1,
        0,
        0,
        0,
        0,
        1,
        0,
        0.93335968255996704,
        6.1642184257507324,
        -2.9552712440490723,
        1
      ],
      "name": "building"
    },
    {
      "children": [
        6
      ],
      "name": "Geode"
    },
    {
      "mesh": 0,
      "name": "building_buildingtx_0"
    },
    {
      "children": [
        8
      ],
      "name": "detailing"
    },
    {
      "children": [
        9
      ],
      "name": "Geode"
    },
    {
      "mesh": 1,
      "name": "detailing_detailingtx_0"
    },
    {
      "children": [
        11
      ],
      "name": "props"
    },
    {
      "children": [
        12
      ],
      "name": "Geode"
    },
    {
      "mesh": 2,
      "name": "props_propstx_0"
    }
  ],
  "samplers": [
    {
      "magFilter": 9729,
      "minFilter": 9987,
      "wrapS": 10497,
      "wrapT": 10497
    }
  ],
  "scene": 0,
  "scenes": [
    {
      "name": "OSG_Scene",
      "nodes": [
        0
      ]
    }
  ],
  "textures": [
    {
      "sampler": 0,
      "source": 0
    },
    {
      "sampler": 0,
      "source": 1
    },
    {
      "sampler": 0,
      "source": 2
    },
    {
      "sampler": 0,
      "source": 3
    },
    {
      "sampler": 0,
      "source": 4
    },
    {
      "sampler": 0,
      "source": 5
    },
    {
      "sampler": 0,
      "source": 6
    },
    {
      "sampler": 0,
      "source": 7
    },
    {
      "sampler": 0,
      "source": 8
    }
  ]
}

